G04 #@! TF.GenerationSoftware,KiCad,Pcbnew,9.0.6*
G04 #@! TF.CreationDate,2025-12-05T23:01:33-08:00*
G04 #@! TF.ProjectId,amdhackclubproject,616d6468-6163-46b6-936c-756270726f6a,rev?*
G04 #@! TF.SameCoordinates,Original*
G04 #@! TF.FileFunction,Soldermask,Top*
G04 #@! TF.FilePolarity,Negative*
%FSLAX46Y46*%
G04 Gerber Fmt 4.6, Leading zero omitted, Abs format (unit mm)*
G04 Created by KiCad (PCBNEW 9.0.6) date 2025-12-05 23:01:33*
%MOMM*%
%LPD*%
G01*
G04 APERTURE LIST*
G04 Aperture macros list*
%AMRoundRect*
0 Rectangle with rounded corners*
0 $1 Rounding radius*
0 $2 $3 $4 $5 $6 $7 $8 $9 X,Y pos of 4 corners*
0 Add a 4 corners polygon primitive as box body*
4,1,4,$2,$3,$4,$5,$6,$7,$8,$9,$2,$3,0*
0 Add four circle primitives for the rounded corners*
1,1,$1+$1,$2,$3*
1,1,$1+$1,$4,$5*
1,1,$1+$1,$6,$7*
1,1,$1+$1,$8,$9*
0 Add four rect primitives between the rounded corners*
20,1,$1+$1,$2,$3,$4,$5,0*
20,1,$1+$1,$4,$5,$6,$7,0*
20,1,$1+$1,$6,$7,$8,$9,0*
20,1,$1+$1,$8,$9,$2,$3,0*%
G04 Aperture macros list end*
%ADD10RoundRect,0.152400X-1.063600X-0.609600X1.063600X-0.609600X1.063600X0.609600X-1.063600X0.609600X0*%
%ADD11C,1.524000*%
%ADD12RoundRect,0.152400X1.063600X0.609600X-1.063600X0.609600X-1.063600X-0.609600X1.063600X-0.609600X0*%
%ADD13C,1.700000*%
%ADD14C,4.000000*%
%ADD15C,2.200000*%
%ADD16R,1.600000X0.850000*%
G04 APERTURE END LIST*
D10*
X117710000Y-66100000D03*
D11*
X116875000Y-66100000D03*
D10*
X117710000Y-68640000D03*
D11*
X116875000Y-68640000D03*
D10*
X117710000Y-71180000D03*
D11*
X116875000Y-71180000D03*
D10*
X117710000Y-73720000D03*
D11*
X116875000Y-73720000D03*
D10*
X117710000Y-76260000D03*
D11*
X116875000Y-76260000D03*
D10*
X117710000Y-78800000D03*
D11*
X116875000Y-78800000D03*
D10*
X117710000Y-81340000D03*
D11*
X116875000Y-81340000D03*
X101635000Y-81340000D03*
D12*
X100800000Y-81340000D03*
D11*
X101635000Y-78800000D03*
D12*
X100800000Y-78800000D03*
D11*
X101635000Y-76260000D03*
D12*
X100800000Y-76260000D03*
D11*
X101635000Y-73720000D03*
D12*
X100800000Y-73720000D03*
D11*
X101635000Y-71180000D03*
D12*
X100800000Y-71180000D03*
D11*
X101635000Y-68640000D03*
D12*
X100800000Y-68640000D03*
D11*
X101635000Y-66100000D03*
D12*
X100800000Y-66100000D03*
D13*
X135413750Y-76200000D03*
D14*
X140493750Y-76200000D03*
D13*
X145573750Y-76200000D03*
D15*
X143033750Y-71120000D03*
X136683750Y-73660000D03*
D13*
X154463750Y-95250000D03*
D14*
X159543750Y-95250000D03*
D13*
X164623750Y-95250000D03*
D15*
X162083750Y-90170000D03*
X155733750Y-92710000D03*
D13*
X116363750Y-95250000D03*
D14*
X121443750Y-95250000D03*
D13*
X126523750Y-95250000D03*
D15*
X123983750Y-90170000D03*
X117633750Y-92710000D03*
D13*
X135413750Y-95250000D03*
D14*
X140493750Y-95250000D03*
D13*
X145573750Y-95250000D03*
D15*
X143033750Y-90170000D03*
X136683750Y-92710000D03*
D16*
X103150000Y-99725000D03*
X103150000Y-101475000D03*
X106650000Y-101475000D03*
X106650000Y-99725000D03*
X103150000Y-88106250D03*
X103150000Y-89856250D03*
X106650000Y-89856250D03*
X106650000Y-88106250D03*
M02*
