G04 #@! TF.GenerationSoftware,KiCad,Pcbnew,9.0.6*
G04 #@! TF.CreationDate,2025-12-05T23:01:32-08:00*
G04 #@! TF.ProjectId,amdhackclubproject,616d6468-6163-46b6-936c-756270726f6a,rev?*
G04 #@! TF.SameCoordinates,Original*
G04 #@! TF.FileFunction,Copper,L1,Top*
G04 #@! TF.FilePolarity,Positive*
%FSLAX46Y46*%
G04 Gerber Fmt 4.6, Leading zero omitted, Abs format (unit mm)*
G04 Created by KiCad (PCBNEW 9.0.6) date 2025-12-05 23:01:32*
%MOMM*%
%LPD*%
G01*
G04 APERTURE LIST*
G04 Aperture macros list*
%AMRoundRect*
0 Rectangle with rounded corners*
0 $1 Rounding radius*
0 $2 $3 $4 $5 $6 $7 $8 $9 X,Y pos of 4 corners*
0 Add a 4 corners polygon primitive as box body*
4,1,4,$2,$3,$4,$5,$6,$7,$8,$9,$2,$3,0*
0 Add four circle primitives for the rounded corners*
1,1,$1+$1,$2,$3*
1,1,$1+$1,$4,$5*
1,1,$1+$1,$6,$7*
1,1,$1+$1,$8,$9*
0 Add four rect primitives between the rounded corners*
20,1,$1+$1,$2,$3,$4,$5,0*
20,1,$1+$1,$4,$5,$6,$7,0*
20,1,$1+$1,$6,$7,$8,$9,0*
20,1,$1+$1,$8,$9,$2,$3,0*%
G04 Aperture macros list end*
G04 #@! TA.AperFunction,SMDPad,CuDef*
%ADD10RoundRect,0.152400X-1.063600X-0.609600X1.063600X-0.609600X1.063600X0.609600X-1.063600X0.609600X0*%
G04 #@! TD*
G04 #@! TA.AperFunction,ComponentPad*
%ADD11C,1.524000*%
G04 #@! TD*
G04 #@! TA.AperFunction,SMDPad,CuDef*
%ADD12RoundRect,0.152400X1.063600X0.609600X-1.063600X0.609600X-1.063600X-0.609600X1.063600X-0.609600X0*%
G04 #@! TD*
G04 #@! TA.AperFunction,ComponentPad*
%ADD13C,2.200000*%
G04 #@! TD*
G04 #@! TA.AperFunction,SMDPad,CuDef*
%ADD14R,1.600000X0.850000*%
G04 #@! TD*
G04 #@! TA.AperFunction,ViaPad*
%ADD15C,0.600000*%
G04 #@! TD*
G04 #@! TA.AperFunction,Conductor*
%ADD16C,0.200000*%
G04 #@! TD*
G04 APERTURE END LIST*
D10*
X117710000Y-66100000D03*
D11*
X116875000Y-66100000D03*
D10*
X117710000Y-68640000D03*
D11*
X116875000Y-68640000D03*
D10*
X117710000Y-71180000D03*
D11*
X116875000Y-71180000D03*
D10*
X117710000Y-73720000D03*
D11*
X116875000Y-73720000D03*
D10*
X117710000Y-76260000D03*
D11*
X116875000Y-76260000D03*
D10*
X117710000Y-78800000D03*
D11*
X116875000Y-78800000D03*
D10*
X117710000Y-81340000D03*
D11*
X116875000Y-81340000D03*
X101635000Y-81340000D03*
D12*
X100800000Y-81340000D03*
D11*
X101635000Y-78800000D03*
D12*
X100800000Y-78800000D03*
D11*
X101635000Y-76260000D03*
D12*
X100800000Y-76260000D03*
D11*
X101635000Y-73720000D03*
D12*
X100800000Y-73720000D03*
D11*
X101635000Y-71180000D03*
D12*
X100800000Y-71180000D03*
D11*
X101635000Y-68640000D03*
D12*
X100800000Y-68640000D03*
D11*
X101635000Y-66100000D03*
D12*
X100800000Y-66100000D03*
D13*
X143033750Y-71120000D03*
X136683750Y-73660000D03*
X162083750Y-90170000D03*
X155733750Y-92710000D03*
X123983750Y-90170000D03*
X117633750Y-92710000D03*
X143033750Y-90170000D03*
X136683750Y-92710000D03*
D14*
X103150000Y-99725000D03*
X103150000Y-101475000D03*
X106650000Y-101475000D03*
X106650000Y-99725000D03*
X103150000Y-88106250D03*
X103150000Y-89856250D03*
X106650000Y-89856250D03*
X106650000Y-88106250D03*
D15*
X136700000Y-88300000D03*
X123600000Y-68700000D03*
D16*
X116875000Y-66100000D02*
X106650000Y-76325000D01*
X101635000Y-76260000D02*
X104400000Y-79025000D01*
X115812000Y-79863000D02*
X115812000Y-81998250D01*
X116875000Y-73720000D02*
X117952630Y-73720000D01*
X116875000Y-78800000D02*
X115812000Y-79863000D01*
X107751000Y-89207250D02*
X107751000Y-98624000D01*
X107751000Y-98624000D02*
X106650000Y-99725000D01*
X106650000Y-76325000D02*
X106650000Y-88106250D01*
X106650000Y-88106250D02*
X107751000Y-89207250D01*
X103150000Y-88106250D02*
X104251000Y-89207250D01*
X104251000Y-99076000D02*
X106650000Y-101475000D01*
X104251000Y-89207250D02*
X104251000Y-99076000D01*
X117633750Y-95678470D02*
X117633750Y-92710000D01*
X103150000Y-89856250D02*
X100700000Y-92306250D01*
X103876000Y-102201000D02*
X111111220Y-102201000D01*
X116875000Y-68640000D02*
X123540000Y-68640000D01*
X123540000Y-68640000D02*
X123600000Y-68700000D01*
X111111220Y-102201000D02*
X117633750Y-95678470D01*
X117633750Y-92710000D02*
X136683750Y-92710000D01*
X100700000Y-92306250D02*
X100700000Y-99025000D01*
X100700000Y-99025000D02*
X103150000Y-101475000D01*
X136683750Y-88316250D02*
X136700000Y-88300000D01*
X136683750Y-92710000D02*
X136683750Y-88316250D01*
X103150000Y-101475000D02*
X103876000Y-102201000D01*
X136683750Y-92710000D02*
X155733750Y-92710000D01*
X104400000Y-87606250D02*
X106650000Y-89856250D01*
X104400000Y-79025000D02*
X104400000Y-87606250D01*
X120552630Y-71120000D02*
X143033750Y-71120000D01*
X117952630Y-73720000D02*
X120552630Y-71120000D01*
X115812000Y-81998250D02*
X123983750Y-90170000D01*
X134203750Y-81340000D02*
X143033750Y-90170000D01*
X116875000Y-81340000D02*
X134203750Y-81340000D01*
X116875000Y-76260000D02*
X133775280Y-76260000D01*
X133775280Y-76260000D02*
X147685280Y-90170000D01*
X147685280Y-90170000D02*
X162083750Y-90170000D01*
M02*
